%TF.GenerationSoftware,KiCad,Pcbnew,10.0.3*%
%TF.CreationDate,2026-06-29T00:55:06-07:00*%
%TF.ProjectId,board,626f6172-642e-46b6-9963-61645f706362,rev?*%
%TF.SameCoordinates,Original*%
%TF.FileFunction,Paste,Top*%
%TF.FilePolarity,Positive*%
%FSLAX46Y46*%
G04 Gerber Fmt 4.6, Leading zero omitted, Abs format (unit mm)*
G04 Created by KiCad (PCBNEW 10.0.3) date 2026-06-29 00:55:06*
%MOMM*%
%LPD*%
G01*
G04 APERTURE LIST*
G04 Aperture macros list*
%AMRoundRect*
0 Rectangle with rounded corners*
0 $1 Rounding radius*
0 $2 $3 $4 $5 $6 $7 $8 $9 X,Y pos of 4 corners*
0 Add a 4 corners polygon primitive as box body*
4,1,4,$2,$3,$4,$5,$6,$7,$8,$9,$2,$3,0*
0 Add four circle primitives for the rounded corners*
1,1,$1+$1,$2,$3*
1,1,$1+$1,$4,$5*
1,1,$1+$1,$6,$7*
1,1,$1+$1,$8,$9*
0 Add four rect primitives between the rounded corners*
20,1,$1+$1,$2,$3,$4,$5,0*
20,1,$1+$1,$4,$5,$6,$7,0*
20,1,$1+$1,$6,$7,$8,$9,0*
20,1,$1+$1,$8,$9,$2,$3,0*%
G04 Aperture macros list end*
%ADD10C,0.010000*%
%ADD11R,1.498600X0.812800*%
%ADD12R,0.812800X1.498600*%
%ADD13R,0.889000X0.889000*%
%ADD14RoundRect,0.033750X-0.346250X-0.101250X0.346250X-0.101250X0.346250X0.101250X-0.346250X0.101250X0*%
%ADD15R,1.244600X0.939800*%
%ADD16R,1.600000X1.800000*%
%ADD17O,0.607000X0.364000*%
%ADD18R,1.000000X1.600000*%
%ADD19R,1.350000X0.400000*%
%ADD20R,2.100000X1.100000*%
%ADD21RoundRect,0.150000X-0.587500X-0.150000X0.587500X-0.150000X0.587500X0.150000X-0.587500X0.150000X0*%
G04 APERTURE END LIST*
D10*
%TO.C,U4*%
X96205000Y-72340000D02*
X96765000Y-72340000D01*
X96765000Y-73160000D01*
X96205000Y-73160000D01*
X96205000Y-72340000D01*
G36*
X96765000Y-73160000D02*
G01*
X96205000Y-73160000D01*
X96205000Y-72340000D01*
X96765000Y-72340000D01*
X96765000Y-73160000D01*
G37*
%TO.C,U2*%
X101205000Y-72340000D02*
X101765000Y-72340000D01*
X101765000Y-73160000D01*
X101205000Y-73160000D01*
X101205000Y-72340000D01*
G36*
X101765000Y-73160000D02*
G01*
X101205000Y-73160000D01*
X101205000Y-72340000D01*
X101765000Y-72340000D01*
X101765000Y-73160000D01*
G37*
%TD*%
D11*
%TO.C,U1*%
X70250000Y-95080000D03*
X70250000Y-96350000D03*
X70250000Y-97620000D03*
X70250000Y-98890000D03*
X70250000Y-100160000D03*
X70250000Y-101430000D03*
X70250000Y-102700000D03*
X70250000Y-103970000D03*
X70250000Y-105240000D03*
X70250000Y-106510000D03*
X70250000Y-107780000D03*
X70250000Y-109050000D03*
X70250000Y-110320000D03*
X70250000Y-111590000D03*
D12*
X72015000Y-112840000D03*
X73285000Y-112840000D03*
X74555000Y-112840000D03*
X75825000Y-112840000D03*
X77095000Y-112840000D03*
X78365000Y-112840000D03*
X79635000Y-112840000D03*
X80905000Y-112840000D03*
X82175000Y-112840000D03*
X83445000Y-112840000D03*
X84715000Y-112840000D03*
X85985000Y-112840000D03*
D11*
X87750000Y-111590000D03*
X87750000Y-110320000D03*
X87750000Y-109050000D03*
X87750000Y-107780000D03*
X87750000Y-106510000D03*
X87750000Y-105240000D03*
X87750000Y-103970000D03*
X87750000Y-102700000D03*
X87750000Y-101430000D03*
X87750000Y-100160000D03*
X87750000Y-98890000D03*
X87750000Y-97620000D03*
X87750000Y-96350000D03*
X87750000Y-95080000D03*
D13*
X77500000Y-102800000D03*
X76100000Y-101400000D03*
X76100000Y-102800000D03*
X76100000Y-104200000D03*
X77500000Y-104200000D03*
X78900000Y-104200000D03*
X78900000Y-102800000D03*
X78900000Y-101400000D03*
X77500000Y-101400000D03*
%TD*%
D14*
%TO.C,U4*%
X95500000Y-72000000D03*
X95500000Y-72500000D03*
X95500000Y-73000000D03*
X95500000Y-73500000D03*
X97470000Y-73500000D03*
X97470000Y-73000000D03*
X97470000Y-72500000D03*
X97470000Y-72000000D03*
%TD*%
D15*
%TO.C,LED1*%
X57561600Y-108850001D03*
X57561600Y-112149999D03*
X62438400Y-112149999D03*
X62438400Y-108850001D03*
%TD*%
D16*
%TO.C,R1*%
X99100000Y-92500000D03*
X101900000Y-92500000D03*
%TD*%
D14*
%TO.C,U2*%
X100500000Y-72000000D03*
X100500000Y-72500000D03*
X100500000Y-73000000D03*
X100500000Y-73500000D03*
X102470000Y-73500000D03*
X102470000Y-73000000D03*
X102470000Y-72500000D03*
X102470000Y-72000000D03*
%TD*%
D17*
%TO.C,U3*%
X94000000Y-67700000D03*
X94000000Y-68350000D03*
X94000000Y-69000000D03*
X96060000Y-69000000D03*
X96060000Y-68350000D03*
X96060000Y-67700000D03*
D18*
X95030000Y-68350000D03*
%TD*%
D19*
%TO.C,J1*%
X60374990Y-98900009D03*
X60375000Y-99549990D03*
X60374999Y-100200002D03*
X60375006Y-100850012D03*
X60374999Y-101500002D03*
D20*
X57700000Y-98550001D03*
X57699999Y-101850001D03*
%TD*%
D16*
%TO.C,R2*%
X91600000Y-100000000D03*
X94400000Y-100000000D03*
%TD*%
D21*
%TO.C,U5*%
X89500000Y-70600000D03*
X89500000Y-72500000D03*
X91375000Y-71550000D03*
%TD*%
M02*
