M48
; DRILL file KiCad 10.0.3 date 2026-06-29T00:55:02
; FORMAT={-:-/ absolute / metric / decimal}
; #@! TF.CreationDate,2026-06-29T00:55:02-07:00
; #@! TF.GenerationSoftware,Kicad,Pcbnew,10.0.3
; #@! TF.FileFunction,Plated,1,2,PTH
FMAT,2
METRIC
; #@! TA.AperFunction,Plated,PTH,ViaDrill
T1C0.300
; #@! TA.AperFunction,Plated,PTH,ComponentDrill
T2C0.750
; #@! TA.AperFunction,Plated,PTH,ComponentDrill
T3C1.000
; #@! TA.AperFunction,Plated,PTH,ComponentDrill
T4C1.000
%
G90
G05
T1
X62.8Y-107.2
X63.275Y-100.3
X63.674Y-104.042
X64.075Y-106.5
X64.125Y-100.3
X64.276Y-103.441
X64.925Y-106.5
X66.3Y-101.3
X66.499Y-109.801
X67.101Y-109.199
X67.124Y-98.124
X67.4Y-104.5
X68.4Y-99.8
X70.3Y-94.1
X71.0Y-84.9
X72.0Y-101.3
X72.2Y-109.1
X72.4Y-96.0
X72.6Y-97.6
X72.8Y-111.597
X74.0Y-84.3
X74.2Y-96.8
X74.5Y-111.3
X75.5Y-98.0
X75.8Y-95.3
X79.1Y-108.4
X79.4Y-111.3
X79.8Y-107.4
X80.0Y-68.1
X80.5Y-97.5
X80.6Y-102.4
X81.1Y-111.5
X81.2Y-106.5
X81.3Y-72.7
X82.5Y-71.0
X83.0Y-108.4
X83.4Y-105.6
X84.3Y-72.6
X85.4Y-99.2
X86.1Y-95.9
X87.6Y-75.6
X88.7Y-79.3
X89.5Y-97.3
X89.839Y-96.261
X90.0Y-94.2
X91.6Y-73.5
X94.1Y-73.6
X94.5Y-93.5
X96.1Y-66.2
X96.174Y-70.326
X97.0Y-68.8
X98.1Y-74.3
X98.8Y-73.8
X101.2Y-74.4
X101.8Y-67.0
X102.6Y-89.9
X102.9Y-70.6
X103.371Y-71.671
T3
X56.995Y-65.05
X56.995Y-83.65
X56.995Y-71.55
X56.995Y-90.15
X56.995Y-74.35
X56.995Y-80.85
X61.495Y-65.05
X61.495Y-83.65
X61.495Y-80.85
X61.495Y-71.55
X61.495Y-74.35
X61.495Y-90.15
X97.5Y-98.8
X97.5Y-103.3
X104.0Y-98.8
X104.0Y-103.3
T4
X71.34Y-66.0
X73.88Y-66.0
X76.42Y-66.0
X78.96Y-66.0
X81.5Y-66.0
X84.04Y-66.0
X86.58Y-66.0
X89.12Y-66.0
T2
G00X57.775Y-96.745
M15
G01X57.225Y-96.745
M16
G05
G00X57.775Y-103.655
M15
G01X57.225Y-103.655
M16
G05
G00X60.4Y-97.575
M15
G01X60.4Y-97.825
M16
G05
G00X60.4Y-102.575
M15
G01X60.4Y-102.825
M16
G05
M30
