%TF.GenerationSoftware,KiCad,Pcbnew,10.0.3*%
%TF.CreationDate,2026-06-29T00:55:06-07:00*%
%TF.ProjectId,board,626f6172-642e-46b6-9963-61645f706362,rev?*%
%TF.SameCoordinates,Original*%
%TF.FileFunction,Copper,L2,Bot*%
%TF.FilePolarity,Positive*%
%FSLAX46Y46*%
G04 Gerber Fmt 4.6, Leading zero omitted, Abs format (unit mm)*
G04 Created by KiCad (PCBNEW 10.0.3) date 2026-06-29 00:55:06*
%MOMM*%
%LPD*%
G01*
G04 APERTURE LIST*
G04 Aperture macros list*
%AMFreePoly0*
4,1,127,0.758536,0.853536,0.760000,0.850000,0.760000,-0.850000,0.758536,-0.853536,0.755000,-0.855000,0.010000,-0.855000,0.009833,-0.854997,-0.020167,-0.853997,-0.020322,-0.853990,-0.051322,-0.851990,-0.051661,-0.851956,-0.081661,-0.847956,-0.081981,-0.847903,-0.111981,-0.841903,-0.112173,-0.841860,-0.141173,-0.834860,-0.141330,-0.834820,-0.170330,-0.826820,-0.170773,-0.826675,-0.199828,-0.815654,
-0.227828,-0.804654,-0.228169,-0.804505,-0.255169,-0.791505,-0.255428,-0.791371,-0.282428,-0.776371,-0.282620,-0.776258,-0.308620,-0.760258,-0.308812,-0.760135,-0.333812,-0.743135,-0.334000,-0.743000,-0.358000,-0.725000,-0.358281,-0.724773,-0.381281,-0.704773,-0.381452,-0.704617,-0.403452,-0.683617,-0.403617,-0.683452,-0.424617,-0.661452,-0.424773,-0.661281,-0.444773,-0.638281,-0.445000,-0.638000,
-0.463000,-0.614000,-0.463135,-0.613812,-0.480135,-0.588812,-0.480258,-0.588620,-0.496258,-0.562620,-0.496371,-0.562428,-0.511371,-0.535428,-0.511505,-0.535169,-0.524505,-0.508169,-0.524654,-0.507828,-0.535675,-0.479773,-0.546675,-0.450773,-0.546820,-0.450330,-0.554820,-0.421330,-0.554860,-0.421173,-0.561860,-0.392173,-0.561903,-0.391981,-0.567903,-0.361981,-0.567956,-0.361661,-0.571956,-0.331661,
-0.571990,-0.331322,-0.573990,-0.300322,-0.573997,-0.300167,-0.574997,-0.270167,-0.575000,-0.270000,-0.575000,0.270000,-0.574997,0.270167,-0.573997,0.300167,-0.573990,0.300322,-0.571990,0.331322,-0.571956,0.331661,-0.567956,0.361661,-0.567903,0.361981,-0.561903,0.391981,-0.561860,0.392173,-0.554860,0.421173,-0.554820,0.421330,-0.546820,0.450330,-0.546675,0.450773,-0.535654,0.479828,
-0.524654,0.507828,-0.524505,0.508169,-0.511505,0.535169,-0.511371,0.535428,-0.496371,0.562428,-0.496258,0.562620,-0.480258,0.588620,-0.480135,0.588812,-0.463135,0.613812,-0.463000,0.614000,-0.445000,0.638000,-0.444773,0.638281,-0.424773,0.661281,-0.424617,0.661452,-0.403617,0.683452,-0.403452,0.683617,-0.381452,0.704617,-0.381281,0.704773,-0.358281,0.724773,-0.358000,0.725000,
-0.334000,0.743000,-0.333812,0.743135,-0.308812,0.760135,-0.308620,0.760258,-0.282620,0.776258,-0.282428,0.776371,-0.255428,0.791371,-0.255169,0.791505,-0.228169,0.804505,-0.227828,0.804654,-0.199773,0.815675,-0.170773,0.826675,-0.170330,0.826820,-0.141330,0.834820,-0.141173,0.834860,-0.112173,0.841860,-0.111981,0.841903,-0.081981,0.847903,-0.081661,0.847956,-0.051661,0.851956,
-0.051322,0.851990,-0.020322,0.853990,-0.020167,0.853997,0.009833,0.854997,0.010000,0.855000,0.755000,0.855000,0.758536,0.853536,0.758536,0.853536,$1*%
%AMFreePoly1*
4,1,127,-0.009833,0.854997,0.020167,0.853997,0.020322,0.853990,0.051322,0.851990,0.051661,0.851956,0.081661,0.847956,0.081981,0.847903,0.111981,0.841903,0.112173,0.841860,0.141173,0.834860,0.141330,0.834820,0.170330,0.826820,0.170773,0.826675,0.199828,0.815654,0.227828,0.804654,0.228169,0.804505,0.255169,0.791505,0.255428,0.791371,0.282428,0.776371,0.282620,0.776258,
0.308620,0.760258,0.308812,0.760135,0.333812,0.743135,0.334000,0.743000,0.358000,0.725000,0.358281,0.724773,0.381281,0.704773,0.381452,0.704617,0.403452,0.683617,0.403617,0.683452,0.424617,0.661452,0.424773,0.661281,0.444773,0.638281,0.445000,0.638000,0.463000,0.614000,0.463135,0.613812,0.480135,0.588812,0.480258,0.588620,0.496258,0.562620,0.496371,0.562428,
0.511371,0.535428,0.511505,0.535169,0.524505,0.508169,0.524654,0.507828,0.535675,0.479773,0.546675,0.450773,0.546820,0.450330,0.554820,0.421330,0.554860,0.421173,0.561860,0.392173,0.561903,0.391981,0.567903,0.361981,0.567956,0.361661,0.571956,0.331661,0.571990,0.331322,0.573990,0.300322,0.573997,0.300167,0.574997,0.270167,0.575000,0.270000,0.575000,-0.270000,
0.574997,-0.270167,0.573997,-0.300167,0.573990,-0.300322,0.571990,-0.331322,0.571956,-0.331661,0.567956,-0.361661,0.567903,-0.361981,0.561903,-0.391981,0.561860,-0.392173,0.554860,-0.421173,0.554820,-0.421330,0.546820,-0.450330,0.546675,-0.450773,0.535654,-0.479828,0.524654,-0.507828,0.524505,-0.508169,0.511505,-0.535169,0.511371,-0.535428,0.496371,-0.562428,0.496258,-0.562620,
0.480258,-0.588620,0.480135,-0.588812,0.463135,-0.613812,0.463000,-0.614000,0.445000,-0.638000,0.444773,-0.638281,0.424773,-0.661281,0.424617,-0.661452,0.403617,-0.683452,0.403452,-0.683617,0.381452,-0.704617,0.381281,-0.704773,0.358281,-0.724773,0.358000,-0.725000,0.334000,-0.743000,0.333812,-0.743135,0.308812,-0.760135,0.308620,-0.760258,0.282620,-0.776258,0.282428,-0.776371,
0.255428,-0.791371,0.255169,-0.791505,0.228169,-0.804505,0.227828,-0.804654,0.199773,-0.815675,0.170773,-0.826675,0.170330,-0.826820,0.141330,-0.834820,0.141173,-0.834860,0.112173,-0.841860,0.111981,-0.841903,0.081981,-0.847903,0.081661,-0.847956,0.051661,-0.851956,0.051322,-0.851990,0.020322,-0.853990,0.020167,-0.853997,-0.009833,-0.854997,-0.010000,-0.855000,-0.755000,-0.855000,
-0.758536,-0.853536,-0.760000,-0.850000,-0.760000,0.850000,-0.758536,0.853536,-0.755000,0.855000,-0.010000,0.855000,-0.009833,0.854997,-0.009833,0.854997,$1*%
G04 Aperture macros list end*
%TA.AperFunction,ComponentPad*%
%ADD10C,1.507998*%
%TD*%
%TA.AperFunction,ComponentPad*%
%ADD11R,1.700000X1.700000*%
%TD*%
%TA.AperFunction,ComponentPad*%
%ADD12C,1.700000*%
%TD*%
%TA.AperFunction,ComponentPad*%
%ADD13O,1.150000X1.400000*%
%TD*%
%TA.AperFunction,ComponentPad*%
%ADD14FreePoly0,270.000000*%
%TD*%
%TA.AperFunction,ComponentPad*%
%ADD15FreePoly1,270.000000*%
%TD*%
%TA.AperFunction,SMDPad,CuDef*%
%ADD16R,2.510000X1.000000*%
%TD*%
%TA.AperFunction,ViaPad*%
%ADD17C,0.600000*%
%TD*%
%TA.AperFunction,Conductor*%
%ADD18C,0.200000*%
%TD*%
G04 APERTURE END LIST*
D10*
%TO.P,SW1,1,1_1*%
%TO.N,DOWN*%
X61495103Y-83649998D03*
%TO.P,SW1,2,2_2*%
%TO.N,unconnected-(SW1-Pad2)*%
X61495105Y-90149993D03*
%TO.P,SW1,3,3_3*%
%TO.N,GND*%
X56995102Y-83649998D03*
%TO.P,SW1,4,4_4*%
X56995103Y-90149995D03*
%TD*%
%TO.P,SW3,1,1_1*%
%TO.N,UP*%
X61495103Y-65049998D03*
%TO.P,SW3,2,2_2*%
%TO.N,unconnected-(SW3-Pad2)*%
X61495105Y-71549993D03*
%TO.P,SW3,3,3_3*%
%TO.N,GND*%
X56995102Y-65049998D03*
%TO.P,SW3,4,4_4*%
X56995103Y-71549995D03*
%TD*%
D11*
%TO.P,L1,1,GND_1*%
%TO.N,GND*%
X71340000Y-66000000D03*
D12*
%TO.P,L1,2,VCC_2*%
%TO.N,3V3*%
X73880001Y-66000000D03*
%TO.P,L1,3,SCL_3*%
%TO.N,GPIO2*%
X76420000Y-65999999D03*
%TO.P,L1,4,SDA_4*%
%TO.N,GPIO1*%
X78960001Y-66000001D03*
%TO.P,L1,5,RST_5*%
%TO.N,GPIO5*%
X81500000Y-66000000D03*
%TO.P,L1,6,DC_6*%
%TO.N,GPIO4*%
X84040000Y-66000000D03*
%TO.P,L1,7,CS_7*%
%TO.N,GPIO3*%
X86580000Y-65999999D03*
%TO.P,L1,8,BL_8*%
%TO.N,DRAIN*%
X89120001Y-65999999D03*
%TD*%
D10*
%TO.P,SW4,1,1_1*%
%TO.N,BOOT*%
X97499998Y-98799999D03*
%TO.P,SW4,2,2_2*%
X104000000Y-98799999D03*
%TO.P,SW4,3,3_3*%
%TO.N,GND*%
X97499998Y-103300000D03*
%TO.P,SW4,4,4_4*%
X104000000Y-103300000D03*
%TD*%
%TO.P,SW2,1,1_1*%
%TO.N,MID*%
X61495105Y-74349995D03*
%TO.P,SW2,2,2_2*%
%TO.N,unconnected-(SW2-Pad2)*%
X61495104Y-80849994D03*
%TO.P,SW2,3,3_3*%
%TO.N,GND*%
X56995104Y-74349995D03*
%TO.P,SW2,4,4_4*%
X56995107Y-80849988D03*
%TD*%
D13*
%TO.P,J1,SH1,SHIELD_SH1*%
%TO.N,GND*%
X60400000Y-97700000D03*
%TO.P,J1,SH2,SHIELD_SH2*%
X60400001Y-102700003D03*
D14*
%TO.P,J1,SH3,SHIELD_SH3*%
X57500001Y-96745007D03*
D15*
%TO.P,J1,SH6,SHIELD_SH6*%
X57500001Y-103654996D03*
%TD*%
D16*
%TO.P,J2,1*%
%TO.N,VBAT*%
X104000000Y-66000000D03*
%TO.P,J2,2*%
%TO.N,GND*%
X100690000Y-68540000D03*
%TD*%
D17*
%TO.N,GND*%
X101800000Y-67000000D03*
X94500000Y-93500000D03*
X66300000Y-101300000D03*
X94100000Y-73600000D03*
X96100000Y-66200000D03*
X89838585Y-96261415D03*
X72400000Y-96000000D03*
X91600000Y-73500000D03*
X70300000Y-94100000D03*
%TO.N,GPIO4*%
X82500000Y-71000000D03*
X71000000Y-84900000D03*
X81300000Y-72700000D03*
X74200000Y-96800000D03*
X72600000Y-97600000D03*
X75800000Y-95300000D03*
%TO.N,GPIO5*%
X67124265Y-98124265D03*
X80000000Y-68100000D03*
X74000000Y-84300000D03*
X68400000Y-99800000D03*
%TO.N,GPIO6*%
X80500000Y-97500000D03*
X80600000Y-102400000D03*
X87600000Y-75600000D03*
X75500000Y-98000000D03*
X72000000Y-101300000D03*
X85400000Y-99200000D03*
%TO.N,GPIO7*%
X67400000Y-104500000D03*
X62800000Y-107200000D03*
%TO.N,SCL*%
X72200000Y-109100000D03*
X98100000Y-74300000D03*
%TO.N,D-*%
X67100521Y-109199479D03*
X64275537Y-103441184D03*
X64125000Y-100300000D03*
X64925000Y-106500000D03*
%TO.N,D+*%
X63674495Y-104042226D03*
X66499479Y-109800521D03*
X63275000Y-100300000D03*
X64075000Y-106500000D03*
%TO.N,GPIO3*%
X81100000Y-111500000D03*
X84300000Y-72600000D03*
X72799518Y-111596992D03*
X83400000Y-105600000D03*
%TO.N,SDA*%
X79400000Y-111300000D03*
X83000000Y-108400000D03*
X98800000Y-73800000D03*
X74500000Y-111300000D03*
%TO.N,UP*%
X81200000Y-106500000D03*
%TO.N,MID*%
X79800000Y-107400000D03*
%TO.N,DOWN*%
X79100000Y-108400000D03*
%TO.N,GPIO2*%
X89500000Y-97300000D03*
X90000000Y-94200000D03*
%TO.N,GPIO1*%
X86100000Y-95900000D03*
%TO.N,VBAT*%
X101200000Y-74400000D03*
X97000000Y-68800000D03*
%TO.N,Net-(U2-PROG)*%
X102600000Y-89900000D03*
X103370949Y-71670949D03*
%TO.N,VBUS*%
X96174265Y-70325735D03*
X102900000Y-70600000D03*
X88700000Y-79300000D03*
%TD*%
%TO.N,GND*%
D18*
X91738585Y-96261415D02*
X89838585Y-96261415D01*
X70500000Y-94100000D02*
X70300000Y-94100000D01*
X64945108Y-98100000D02*
X66300000Y-98100000D01*
X94500000Y-93500000D02*
X91738585Y-96261415D01*
X66300000Y-101300000D02*
X66300000Y-98100000D01*
X100690000Y-68540000D02*
X100690000Y-67390000D01*
X72400000Y-96000000D02*
X70500000Y-94100000D01*
X64545108Y-97700000D02*
X60400000Y-97700000D01*
X96600000Y-65700000D02*
X96100000Y-66200000D01*
X56995103Y-90149995D02*
X64945108Y-98100000D01*
X101800000Y-67000000D02*
X101800000Y-67430000D01*
X94000000Y-73500000D02*
X94100000Y-73600000D01*
X101800000Y-67430000D02*
X100690000Y-68540000D01*
X64945108Y-98100000D02*
X64545108Y-97700000D01*
X99000000Y-65700000D02*
X96600000Y-65700000D01*
X66300000Y-98100000D02*
X70300000Y-94100000D01*
X91600000Y-73500000D02*
X94000000Y-73500000D01*
X100690000Y-67390000D02*
X99000000Y-65700000D01*
%TO.N,GPIO4*%
X72600000Y-97600000D02*
X73439710Y-96760290D01*
X73439710Y-96760290D02*
X74160290Y-96760290D01*
X81300000Y-72700000D02*
X81300000Y-72200000D01*
X75800000Y-89700000D02*
X71000000Y-84900000D01*
X81300000Y-72200000D02*
X82500000Y-71000000D01*
X75800000Y-95300000D02*
X75800000Y-89700000D01*
X74160290Y-96760290D02*
X74200000Y-96800000D01*
%TO.N,GPIO5*%
X80000000Y-68100000D02*
X80000000Y-78300000D01*
X80000000Y-78300000D02*
X74000000Y-84300000D01*
X68400000Y-99400000D02*
X68400000Y-99800000D01*
X67124265Y-98124265D02*
X68400000Y-99400000D01*
%TO.N,GPIO6*%
X80600000Y-97600000D02*
X80500000Y-97500000D01*
X75500000Y-98000000D02*
X75300000Y-98000000D01*
X87600000Y-97000000D02*
X85400000Y-99200000D01*
X75300000Y-98000000D02*
X72000000Y-101300000D01*
X80600000Y-102400000D02*
X80600000Y-97600000D01*
X87600000Y-75600000D02*
X87600000Y-97000000D01*
%TO.N,GPIO7*%
X62800000Y-106000000D02*
X62800000Y-107200000D01*
X67400000Y-104500000D02*
X64300000Y-104500000D01*
X64300000Y-104500000D02*
X62800000Y-106000000D01*
%TO.N,SCL*%
X81300000Y-109000000D02*
X72300000Y-109000000D01*
X98100000Y-74300000D02*
X98100000Y-92200000D01*
X72300000Y-109000000D02*
X72200000Y-109100000D01*
X98100000Y-92200000D02*
X81300000Y-109000000D01*
%TO.N,D-*%
X63925001Y-103373491D02*
X63925001Y-100499999D01*
X66817678Y-109199479D02*
X64725001Y-107106802D01*
X64275537Y-103441184D02*
X63992694Y-103441184D01*
X67100521Y-109199479D02*
X66817678Y-109199479D01*
X63925001Y-100499999D02*
X64125000Y-100300000D01*
X63992694Y-103441184D02*
X63925001Y-103373491D01*
X64725001Y-107106802D02*
X64725001Y-106699999D01*
X64725001Y-106699999D02*
X64925000Y-106500000D01*
%TO.N,D+*%
X66499479Y-109517678D02*
X64274999Y-107293198D01*
X63674495Y-104042226D02*
X63674495Y-103759383D01*
X63474999Y-103559887D02*
X63474999Y-100499999D01*
X64274999Y-106699999D02*
X64075000Y-106500000D01*
X63674495Y-103759383D02*
X63474999Y-103559887D01*
X66499479Y-109800521D02*
X66499479Y-109517678D01*
X63474999Y-100499999D02*
X63275000Y-100300000D01*
X64274999Y-107293198D02*
X64274999Y-106699999D01*
%TO.N,GPIO3*%
X84300000Y-72600000D02*
X84300000Y-104700000D01*
X84300000Y-104700000D02*
X83400000Y-105600000D01*
X81100000Y-111500000D02*
X80700000Y-111900000D01*
X80700000Y-111900000D02*
X73102526Y-111900000D01*
X73102526Y-111900000D02*
X72799518Y-111596992D01*
%TO.N,SDA*%
X98800000Y-73800000D02*
X98800000Y-92800000D01*
X83200000Y-108400000D02*
X83000000Y-108400000D01*
X98800000Y-92800000D02*
X83200000Y-108400000D01*
X79400000Y-111300000D02*
X74500000Y-111300000D01*
%TO.N,UP*%
X61495103Y-65049998D02*
X66000000Y-69554895D01*
X66000000Y-69554895D02*
X66000000Y-78000000D01*
X81200000Y-93200000D02*
X81200000Y-106500000D01*
X66000000Y-78000000D02*
X81200000Y-93200000D01*
%TO.N,MID*%
X79800000Y-92654890D02*
X79800000Y-107400000D01*
X61495105Y-74349995D02*
X79800000Y-92654890D01*
%TO.N,DOWN*%
X79100000Y-108400000D02*
X79000000Y-108400000D01*
X78900000Y-100200000D02*
X62349998Y-83649998D01*
X78900000Y-108300000D02*
X78900000Y-100200000D01*
X79000000Y-108400000D02*
X78900000Y-108300000D01*
X62349998Y-83649998D02*
X61495103Y-83649998D01*
%TO.N,BOOT*%
X97499998Y-98799999D02*
X104000000Y-98799999D01*
%TO.N,GPIO2*%
X88800000Y-96600000D02*
X89500000Y-97300000D01*
X90000000Y-94200000D02*
X88800000Y-95400000D01*
X88800000Y-95400000D02*
X88800000Y-96600000D01*
%TO.N,GPIO1*%
X86100000Y-95900000D02*
X86100000Y-73140000D01*
X86100000Y-73140000D02*
X78960001Y-66000001D01*
%TO.N,VBAT*%
X102300000Y-67700000D02*
X102300000Y-69700000D01*
X102300000Y-69700000D02*
X102300000Y-73300000D01*
X97900000Y-69700000D02*
X102300000Y-69700000D01*
X97000000Y-68800000D02*
X97900000Y-69700000D01*
X102300000Y-73300000D02*
X101200000Y-74400000D01*
X104000000Y-66000000D02*
X102300000Y-67700000D01*
%TO.N,Net-(U2-PROG)*%
X103370949Y-71670949D02*
X103370949Y-89129051D01*
X103370949Y-89129051D02*
X102600000Y-89900000D01*
%TO.N,VBUS*%
X105053999Y-71953999D02*
X103700000Y-70600000D01*
X103700000Y-70600000D02*
X102900000Y-70600000D01*
X88700000Y-75551471D02*
X93925736Y-70325735D01*
X93925736Y-70325735D02*
X96174265Y-70325735D01*
X88700000Y-79300000D02*
X88700000Y-75551471D01*
%TD*%
M02*
