%TF.GenerationSoftware,KiCad,Pcbnew,10.0.3*%
%TF.CreationDate,2026-06-29T00:55:06-07:00*%
%TF.ProjectId,board,626f6172-642e-46b6-9963-61645f706362,rev?*%
%TF.SameCoordinates,Original*%
%TF.FileFunction,Soldermask,Top*%
%TF.FilePolarity,Negative*%
%FSLAX46Y46*%
G04 Gerber Fmt 4.6, Leading zero omitted, Abs format (unit mm)*
G04 Created by KiCad (PCBNEW 10.0.3) date 2026-06-29 00:55:06*
%MOMM*%
%LPD*%
G01*
G04 APERTURE LIST*
G04 Aperture macros list*
%AMRoundRect*
0 Rectangle with rounded corners*
0 $1 Rounding radius*
0 $2 $3 $4 $5 $6 $7 $8 $9 X,Y pos of 4 corners*
0 Add a 4 corners polygon primitive as box body*
4,1,4,$2,$3,$4,$5,$6,$7,$8,$9,$2,$3,0*
0 Add four circle primitives for the rounded corners*
1,1,$1+$1,$2,$3*
1,1,$1+$1,$4,$5*
1,1,$1+$1,$6,$7*
1,1,$1+$1,$8,$9*
0 Add four rect primitives between the rounded corners*
20,1,$1+$1,$2,$3,$4,$5,0*
20,1,$1+$1,$4,$5,$6,$7,0*
20,1,$1+$1,$6,$7,$8,$9,0*
20,1,$1+$1,$8,$9,$2,$3,0*%
G04 Aperture macros list end*
%ADD10C,0.010000*%
%ADD11R,1.498600X0.812800*%
%ADD12R,0.812800X1.498600*%
%ADD13R,0.889000X0.889000*%
%ADD14C,1.507998*%
%ADD15RoundRect,0.059250X-0.422750X-0.177750X0.422750X-0.177750X0.422750X0.177750X-0.422750X0.177750X0*%
%ADD16RoundRect,0.102000X-0.450000X-0.650000X0.450000X-0.650000X0.450000X0.650000X-0.450000X0.650000X0*%
%ADD17R,1.244600X0.939800*%
%ADD18R,1.700000X1.700000*%
%ADD19C,1.700000*%
%ADD20RoundRect,0.102000X-0.800000X-0.900000X0.800000X-0.900000X0.800000X0.900000X-0.800000X0.900000X0*%
%ADD21O,0.607000X0.364000*%
%ADD22R,1.000000X1.600000*%
%ADD23C,3.200000*%
%ADD24RoundRect,0.102000X-0.675000X0.200000X-0.675000X-0.200000X0.675000X-0.200000X0.675000X0.200000X0*%
%ADD25O,1.354000X1.604000*%
%ADD26RoundRect,0.102000X-1.050000X0.550000X-1.050000X-0.550000X1.050000X-0.550000X1.050000X0.550000X0*%
%ADD27RoundRect,0.150000X-0.587500X-0.150000X0.587500X-0.150000X0.587500X0.150000X-0.587500X0.150000X0*%
G04 APERTURE END LIST*
D10*
%TO.C,J1*%
X57769991Y-96074996D02*
X57230004Y-96075009D01*
X57193997Y-96076003D01*
X57158999Y-96079009D01*
X57123994Y-96083005D01*
X57088991Y-96089999D01*
X57053998Y-96098000D01*
X57020004Y-96107993D01*
X56986002Y-96120002D01*
X56952991Y-96134002D01*
X56921005Y-96148997D01*
X56890000Y-96165996D01*
X56859994Y-96185010D01*
X56830000Y-96205003D01*
X56802010Y-96227003D01*
X56774996Y-96249995D01*
X56748999Y-96274011D01*
X56725005Y-96300004D01*
X56702001Y-96327000D01*
X56679999Y-96355002D01*
X56659998Y-96385004D01*
X56640998Y-96415005D01*
X56623999Y-96446004D01*
X56608995Y-96477999D01*
X56594996Y-96511007D01*
X56582996Y-96545005D01*
X56573000Y-96579002D01*
X56564999Y-96614002D01*
X56557997Y-96649017D01*
X56554003Y-96684004D01*
X56551000Y-96718993D01*
X56549996Y-96755011D01*
X56549997Y-97600012D01*
X58449998Y-97599999D01*
X58449998Y-96755008D01*
X58448992Y-96719002D01*
X58446009Y-96684003D01*
X58441997Y-96649000D01*
X58435001Y-96614002D01*
X58426998Y-96578991D01*
X58416994Y-96545004D01*
X58405004Y-96511002D01*
X58390996Y-96478004D01*
X58375999Y-96446002D01*
X58358999Y-96415002D01*
X58340002Y-96385010D01*
X58319991Y-96354998D01*
X58298006Y-96327007D01*
X58275000Y-96300002D01*
X58250989Y-96274005D01*
X58224991Y-96249996D01*
X58198003Y-96226994D01*
X58170003Y-96205000D01*
X58140007Y-96185004D01*
X58109999Y-96166002D01*
X58078999Y-96149003D01*
X58046998Y-96134003D01*
X58013989Y-96119994D01*
X57979997Y-96108002D01*
X57945993Y-96097996D01*
X57910994Y-96089992D01*
X57875999Y-96083002D01*
X57841002Y-96078995D01*
X57806007Y-96075999D01*
X57769991Y-96074996D01*
G36*
X57806007Y-96075999D02*
G01*
X57841002Y-96078995D01*
X57875999Y-96083002D01*
X57910994Y-96089992D01*
X57945993Y-96097996D01*
X57979997Y-96108002D01*
X58013989Y-96119994D01*
X58046998Y-96134003D01*
X58078999Y-96149003D01*
X58109999Y-96166002D01*
X58140007Y-96185004D01*
X58170003Y-96205000D01*
X58198003Y-96226994D01*
X58224991Y-96249996D01*
X58250989Y-96274005D01*
X58275000Y-96300002D01*
X58298006Y-96327007D01*
X58319991Y-96354998D01*
X58340002Y-96385010D01*
X58358999Y-96415002D01*
X58375999Y-96446002D01*
X58390996Y-96478004D01*
X58405004Y-96511002D01*
X58416994Y-96545004D01*
X58426998Y-96578991D01*
X58435001Y-96614002D01*
X58441997Y-96649000D01*
X58446009Y-96684003D01*
X58448992Y-96719002D01*
X58449998Y-96755008D01*
X58449998Y-97599999D01*
X56549997Y-97600012D01*
X56549996Y-96755011D01*
X56551000Y-96718993D01*
X56554003Y-96684004D01*
X56557997Y-96649017D01*
X56564999Y-96614002D01*
X56573000Y-96579002D01*
X56582996Y-96545005D01*
X56594996Y-96511007D01*
X56608995Y-96477999D01*
X56623999Y-96446004D01*
X56640998Y-96415005D01*
X56659998Y-96385004D01*
X56679999Y-96355002D01*
X56702001Y-96327000D01*
X56725005Y-96300004D01*
X56748999Y-96274011D01*
X56774996Y-96249995D01*
X56802010Y-96227003D01*
X56830000Y-96205003D01*
X56859994Y-96185010D01*
X56890000Y-96165996D01*
X56921005Y-96148997D01*
X56952991Y-96134002D01*
X56986002Y-96120002D01*
X57020004Y-96107993D01*
X57053998Y-96098000D01*
X57088991Y-96089999D01*
X57123994Y-96083005D01*
X57158999Y-96079009D01*
X57193997Y-96076003D01*
X57230004Y-96075009D01*
X57769991Y-96074996D01*
X57806007Y-96075999D01*
G37*
X58449996Y-102800006D02*
X56549997Y-102799993D01*
X56549999Y-103644999D01*
X56551010Y-103681000D01*
X56553997Y-103716000D01*
X56558002Y-103751004D01*
X56564999Y-103786003D01*
X56573001Y-103820996D01*
X56583008Y-103855009D01*
X56595008Y-103889005D01*
X56608996Y-103922005D01*
X56623999Y-103954002D01*
X56641002Y-103984997D01*
X56659998Y-104014992D01*
X56679999Y-104045002D01*
X56701999Y-104073002D01*
X56725005Y-104100003D01*
X56748991Y-104125994D01*
X56774998Y-104150009D01*
X56801989Y-104173010D01*
X56830002Y-104194997D01*
X56860000Y-104215002D01*
X56889999Y-104234002D01*
X56921006Y-104251002D01*
X56952993Y-104266006D01*
X56986000Y-104280002D01*
X57020000Y-104292002D01*
X57053999Y-104302002D01*
X57088998Y-104310002D01*
X57123994Y-104316997D01*
X57158991Y-104321002D01*
X57193998Y-104323993D01*
X57230002Y-104325002D01*
X57769996Y-104325003D01*
X57805988Y-104324006D01*
X57840993Y-104320999D01*
X57876000Y-104317003D01*
X57911002Y-104309999D01*
X57945999Y-104302004D01*
X57979999Y-104292003D01*
X58014004Y-104279998D01*
X58046999Y-104266000D01*
X58079011Y-104251000D01*
X58109999Y-104234002D01*
X58140000Y-104215000D01*
X58170002Y-104195004D01*
X58198007Y-104173004D01*
X58224992Y-104150009D01*
X58251009Y-104125998D01*
X58274998Y-104100002D01*
X58297995Y-104073010D01*
X58319997Y-104045001D01*
X58339995Y-104014990D01*
X58358994Y-103985007D01*
X58375994Y-103953994D01*
X58390999Y-103922001D01*
X58404998Y-103889006D01*
X58416999Y-103855002D01*
X58426995Y-103820997D01*
X58434999Y-103786001D01*
X58441997Y-103750998D01*
X58445999Y-103716002D01*
X58448994Y-103681003D01*
X58449994Y-103644997D01*
X58449996Y-102800006D01*
G36*
X58449996Y-102800006D02*
G01*
X58449994Y-103644997D01*
X58448994Y-103681003D01*
X58445999Y-103716002D01*
X58441997Y-103750998D01*
X58434999Y-103786001D01*
X58426995Y-103820997D01*
X58416999Y-103855002D01*
X58404998Y-103889006D01*
X58390999Y-103922001D01*
X58375994Y-103953994D01*
X58358994Y-103985007D01*
X58339995Y-104014990D01*
X58319997Y-104045001D01*
X58297995Y-104073010D01*
X58274998Y-104100002D01*
X58251009Y-104125998D01*
X58224992Y-104150009D01*
X58198007Y-104173004D01*
X58170002Y-104195004D01*
X58140000Y-104215000D01*
X58109999Y-104234002D01*
X58079011Y-104251000D01*
X58046999Y-104266000D01*
X58014004Y-104279998D01*
X57979999Y-104292003D01*
X57945999Y-104302004D01*
X57911002Y-104309999D01*
X57876000Y-104317003D01*
X57840993Y-104320999D01*
X57805988Y-104324006D01*
X57769996Y-104325003D01*
X57230002Y-104325002D01*
X57193998Y-104323993D01*
X57158991Y-104321002D01*
X57123994Y-104316997D01*
X57088998Y-104310002D01*
X57053999Y-104302002D01*
X57020000Y-104292002D01*
X56986000Y-104280002D01*
X56952993Y-104266006D01*
X56921006Y-104251002D01*
X56889999Y-104234002D01*
X56860000Y-104215002D01*
X56830002Y-104194997D01*
X56801989Y-104173010D01*
X56774998Y-104150009D01*
X56748991Y-104125994D01*
X56725005Y-104100003D01*
X56701999Y-104073002D01*
X56679999Y-104045002D01*
X56659998Y-104014992D01*
X56641002Y-103984997D01*
X56623999Y-103954002D01*
X56608996Y-103922005D01*
X56595008Y-103889005D01*
X56583008Y-103855009D01*
X56573001Y-103820996D01*
X56564999Y-103786003D01*
X56558002Y-103751004D01*
X56553997Y-103716000D01*
X56551010Y-103681000D01*
X56549999Y-103644999D01*
X56549997Y-102799993D01*
X58449996Y-102800006D01*
G37*
%TD*%
D11*
%TO.C,U1*%
X70250000Y-95080000D03*
X70250000Y-96350000D03*
X70250000Y-97620000D03*
X70250000Y-98890000D03*
X70250000Y-100160000D03*
X70250000Y-101430000D03*
X70250000Y-102700000D03*
X70250000Y-103970000D03*
X70250000Y-105240000D03*
X70250000Y-106510000D03*
X70250000Y-107780000D03*
X70250000Y-109050000D03*
X70250000Y-110320000D03*
X70250000Y-111590000D03*
D12*
X72015000Y-112840000D03*
X73285000Y-112840000D03*
X74555000Y-112840000D03*
X75825000Y-112840000D03*
X77095000Y-112840000D03*
X78365000Y-112840000D03*
X79635000Y-112840000D03*
X80905000Y-112840000D03*
X82175000Y-112840000D03*
X83445000Y-112840000D03*
X84715000Y-112840000D03*
X85985000Y-112840000D03*
D11*
X87750000Y-111590000D03*
X87750000Y-110320000D03*
X87750000Y-109050000D03*
X87750000Y-107780000D03*
X87750000Y-106510000D03*
X87750000Y-105240000D03*
X87750000Y-103970000D03*
X87750000Y-102700000D03*
X87750000Y-101430000D03*
X87750000Y-100160000D03*
X87750000Y-98890000D03*
X87750000Y-97620000D03*
X87750000Y-96350000D03*
X87750000Y-95080000D03*
D13*
X77500000Y-102800000D03*
X76100000Y-101400000D03*
X76100000Y-102800000D03*
X76100000Y-104200000D03*
X77500000Y-104200000D03*
X78900000Y-104200000D03*
X78900000Y-102800000D03*
X78900000Y-101400000D03*
X77500000Y-101400000D03*
%TD*%
D14*
%TO.C,SW1*%
X61495103Y-83649998D03*
X61495105Y-90149993D03*
X56995102Y-83649998D03*
X56995103Y-90149995D03*
%TD*%
%TO.C,SW3*%
X61495103Y-65049998D03*
X61495105Y-71549993D03*
X56995102Y-65049998D03*
X56995103Y-71549995D03*
%TD*%
D15*
%TO.C,U4*%
X95500000Y-72000000D03*
X95500000Y-72500000D03*
X95500000Y-73000000D03*
X95500000Y-73500000D03*
X97470000Y-73500000D03*
X97470000Y-73000000D03*
X97470000Y-72500000D03*
X97470000Y-72000000D03*
D16*
X96485000Y-72750000D03*
%TD*%
D17*
%TO.C,LED1*%
X57561600Y-108850001D03*
X57561600Y-112149999D03*
X62438400Y-112149999D03*
X62438400Y-108850001D03*
%TD*%
D18*
%TO.C,L1*%
X71340000Y-66000000D03*
D19*
X73880001Y-66000000D03*
X76420000Y-65999999D03*
X78960001Y-66000001D03*
X81500000Y-66000000D03*
X84040000Y-66000000D03*
X86580000Y-65999999D03*
X89120001Y-65999999D03*
%TD*%
D20*
%TO.C,R1*%
X99100000Y-92500000D03*
X101900000Y-92500000D03*
%TD*%
D15*
%TO.C,U2*%
X100500000Y-72000000D03*
X100500000Y-72500000D03*
X100500000Y-73000000D03*
X100500000Y-73500000D03*
X102470000Y-73500000D03*
X102470000Y-73000000D03*
X102470000Y-72500000D03*
X102470000Y-72000000D03*
D16*
X101485000Y-72750000D03*
%TD*%
D21*
%TO.C,U3*%
X94000000Y-67700000D03*
X94000000Y-68350000D03*
X94000000Y-69000000D03*
X96060000Y-69000000D03*
X96060000Y-68350000D03*
X96060000Y-67700000D03*
D22*
X95030000Y-68350000D03*
%TD*%
D14*
%TO.C,SW4*%
X97499998Y-98799999D03*
X104000000Y-98799999D03*
X97499998Y-103300000D03*
X104000000Y-103300000D03*
%TD*%
%TO.C,SW2*%
X61495105Y-74349995D03*
X61495104Y-80849994D03*
X56995104Y-74349995D03*
X56995107Y-80849988D03*
%TD*%
D23*
%TO.C,REF\u002A\u002A*%
X70500000Y-73600000D03*
%TD*%
D24*
%TO.C,J1*%
X60374990Y-98900009D03*
X60375000Y-99549990D03*
X60374999Y-100200002D03*
X60375006Y-100850012D03*
X60374999Y-101500002D03*
D25*
X60400000Y-97700000D03*
X60400001Y-102700003D03*
D26*
X57700000Y-98550001D03*
X57699999Y-101850001D03*
%TD*%
D20*
%TO.C,R2*%
X91600000Y-100000000D03*
X94400000Y-100000000D03*
%TD*%
D27*
%TO.C,U5*%
X89500000Y-70600000D03*
X89500000Y-72500000D03*
X91375000Y-71550000D03*
%TD*%
M02*
